<svg xmlns="http://www.w3.org/2000/svg" viewBox="0 0 1024 640" width="1024" height="640"><g transform="translate(-1024 0)"><path d="M459.8761148452759 182.12490029633045 Q611.1009302716702 242.12490029633045 762.3257456980646 172.1554748248309" fill="none" stroke="#1a1f33" stroke-width="2" stroke-linecap="round" stroke-linejoin="round"/></g><g transform="translate(0 0)"><path d="M459.8761148452759 182.12490029633045 Q611.1009302716702 242.12490029633045 762.3257456980646 172.1554748248309" fill="none" stroke="#1a1f33" stroke-width="2" stroke-linecap="round" stroke-linejoin="round"/></g><g transform="translate(1024 0)"><path d="M459.8761148452759 182.12490029633045 Q611.1009302716702 242.12490029633045 762.3257456980646 172.1554748248309" fill="none" stroke="#1a1f33" stroke-width="2" stroke-linecap="round" stroke-linejoin="round"/></g><g transform="translate(-1024 0)"><path d="M535.488522558473 209.61268283892423 L535.488522558473 223.61268283892423" fill="none" stroke="#1a1f33" stroke-width="1.5" stroke-linecap="round" stroke-linejoin="round"/></g><g transform="translate(0 0)"><path d="M535.488522558473 209.61268283892423 L535.488522558473 223.61268283892423" fill="none" stroke="#1a1f33" stroke-width="1.5" stroke-linecap="round" stroke-linejoin="round"/></g><g transform="translate(1024 0)"><path d="M535.488522558473 209.61268283892423 L535.488522558473 223.61268283892423" fill="none" stroke="#1a1f33" stroke-width="1.5" stroke-linecap="round" stroke-linejoin="round"/></g><g transform="translate(-1024 0)"><rect x="531.488522558473" y="223.61268283892423" width="8" height="11" fill="#2a2a3a" rx="1.5" opacity="1"/></g><g transform="translate(0 0)"><rect x="531.488522558473" y="223.61268283892423" width="8" height="11" fill="#2a2a3a" rx="1.5" opacity="1"/></g><g transform="translate(1024 0)"><rect x="531.488522558473" y="223.61268283892423" width="8" height="11" fill="#2a2a3a" rx="1.5" opacity="1"/></g><g transform="translate(-1024 0)"><path d="M611.1009302716702 215.00195843633264 L611.1009302716702 229.00195843633264" fill="none" stroke="#1a1f33" stroke-width="1.5" stroke-linecap="round" stroke-linejoin="round"/></g><g transform="translate(0 0)"><path d="M611.1009302716702 215.00195843633264 L611.1009302716702 229.00195843633264" fill="none" stroke="#1a1f33" stroke-width="1.5" stroke-linecap="round" stroke-linejoin="round"/></g><g transform="translate(1024 0)"><path d="M611.1009302716702 215.00195843633264 L611.1009302716702 229.00195843633264" fill="none" stroke="#1a1f33" stroke-width="1.5" stroke-linecap="round" stroke-linejoin="round"/></g><g transform="translate(-1024 0)"><rect x="607.1009302716702" y="229.00195843633264" width="8" height="11" fill="#2a2a3a" rx="1.5" opacity="1"/></g><g transform="translate(0 0)"><rect x="607.1009302716702" y="229.00195843633264" width="8" height="11" fill="#2a2a3a" rx="1.5" opacity="1"/></g><g transform="translate(1024 0)"><rect x="607.1009302716702" y="229.00195843633264" width="8" height="11" fill="#2a2a3a" rx="1.5" opacity="1"/></g><g transform="translate(-1024 0)"><path d="M686.7133379848674 201.17093078559265 L686.7133379848674 215.17093078559265" fill="none" stroke="#1a1f33" stroke-width="1.5" stroke-linecap="round" stroke-linejoin="round"/></g><g transform="translate(0 0)"><path d="M686.7133379848674 201.17093078559265 L686.7133379848674 215.17093078559265" fill="none" stroke="#1a1f33" stroke-width="1.5" stroke-linecap="round" stroke-linejoin="round"/></g><g transform="translate(1024 0)"><path d="M686.7133379848674 201.17093078559265 L686.7133379848674 215.17093078559265" fill="none" stroke="#1a1f33" stroke-width="1.5" stroke-linecap="round" stroke-linejoin="round"/></g><g transform="translate(-1024 0)"><rect x="682.7133379848674" y="215.17093078559265" width="8" height="11" fill="#ffd27a" rx="1.5" opacity="0.9"/></g><g transform="translate(0 0)"><rect x="682.7133379848674" y="215.17093078559265" width="8" height="11" fill="#ffd27a" rx="1.5" opacity="0.9"/></g><g transform="translate(1024 0)"><rect x="682.7133379848674" y="215.17093078559265" width="8" height="11" fill="#ffd27a" rx="1.5" opacity="0.9"/></g><radialGradient id="gl51" cx="686.7133379848674" cy="220.17093078559265" r="30" gradientUnits="userSpaceOnUse"><stop offset="0" stop-color="#ffbe64" stop-opacity="0.25"/><stop offset="1" stop-color="#ffbe64" stop-opacity="0"/></radialGradient><g transform="translate(-1024 0)"><circle cx="686.7133379848674" cy="220.17093078559265" r="30" fill="url(#gl51)"/></g><g transform="translate(0 0)"><circle cx="686.7133379848674" cy="220.17093078559265" r="30" fill="url(#gl51)"/></g><g transform="translate(1024 0)"><circle cx="686.7133379848674" cy="220.17093078559265" r="30" fill="url(#gl51)"/></g><g transform="translate(-1024 0)"><path d="M273.1163296699524 184.13038060069084 Q450.07806316390634 244.13038060069084 627.0397966578603 200.0208934675902" fill="none" stroke="#1a1f33" stroke-width="2" stroke-linecap="round" stroke-linejoin="round"/></g><g transform="translate(0 0)"><path d="M273.1163296699524 184.13038060069084 Q450.07806316390634 244.13038060069084 627.0397966578603 200.0208934675902" fill="none" stroke="#1a1f33" stroke-width="2" stroke-linecap="round" stroke-linejoin="round"/></g><g transform="translate(1024 0)"><path d="M273.1163296699524 184.13038060069084 Q450.07806316390634 244.13038060069084 627.0397966578603 200.0208934675902" fill="none" stroke="#1a1f33" stroke-width="2" stroke-linecap="round" stroke-linejoin="round"/></g><g transform="translate(-1024 0)"><path d="M361.59719641692936 203.535135560669 L361.59719641692936 217.535135560669" fill="none" stroke="#1a1f33" stroke-width="1.5" stroke-linecap="round" stroke-linejoin="round"/></g><g transform="translate(0 0)"><path d="M361.59719641692936 203.535135560669 L361.59719641692936 217.535135560669" fill="none" stroke="#1a1f33" stroke-width="1.5" stroke-linecap="round" stroke-linejoin="round"/></g><g transform="translate(1024 0)"><path d="M361.59719641692936 203.535135560669 L361.59719641692936 217.535135560669" fill="none" stroke="#1a1f33" stroke-width="1.5" stroke-linecap="round" stroke-linejoin="round"/></g><g transform="translate(-1024 0)"><rect x="357.59719641692936" y="217.535135560669" width="8" height="11" fill="#2a2a3a" rx="1.5" opacity="1"/></g><g transform="translate(0 0)"><rect x="357.59719641692936" y="217.535135560669" width="8" height="11" fill="#2a2a3a" rx="1.5" opacity="1"/></g><g transform="translate(1024 0)"><rect x="357.59719641692936" y="217.535135560669" width="8" height="11" fill="#2a2a3a" rx="1.5" opacity="1"/></g><g transform="translate(-1024 0)"><path d="M450.07806316390634 209.25025248667225 L450.07806316390634 223.25025248667225" fill="none" stroke="#1a1f33" stroke-width="1.5" stroke-linecap="round" stroke-linejoin="round"/></g><g transform="translate(0 0)"><path d="M450.07806316390634 209.25025248667225 L450.07806316390634 223.25025248667225" fill="none" stroke="#1a1f33" stroke-width="1.5" stroke-linecap="round" stroke-linejoin="round"/></g><g transform="translate(1024 0)"><path d="M450.07806316390634 209.25025248667225 L450.07806316390634 223.25025248667225" fill="none" stroke="#1a1f33" stroke-width="1.5" stroke-linecap="round" stroke-linejoin="round"/></g><g transform="translate(-1024 0)"><rect x="446.07806316390634" y="223.25025248667225" width="8" height="11" fill="#ffd27a" rx="1.5" opacity="0.9"/></g><g transform="translate(0 0)"><rect x="446.07806316390634" y="223.25025248667225" width="8" height="11" fill="#ffd27a" rx="1.5" opacity="0.9"/></g><g transform="translate(1024 0)"><rect x="446.07806316390634" y="223.25025248667225" width="8" height="11" fill="#ffd27a" rx="1.5" opacity="0.9"/></g><radialGradient id="gl52" cx="450.07806316390634" cy="228.25025248667225" r="30" gradientUnits="userSpaceOnUse"><stop offset="0" stop-color="#ffbe64" stop-opacity="0.25"/><stop offset="1" stop-color="#ffbe64" stop-opacity="0"/></radialGradient><g transform="translate(-1024 0)"><circle cx="450.07806316390634" cy="228.25025248667225" r="30" fill="url(#gl52)"/></g><g transform="translate(0 0)"><circle cx="450.07806316390634" cy="228.25025248667225" r="30" fill="url(#gl52)"/></g><g transform="translate(1024 0)"><circle cx="450.07806316390634" cy="228.25025248667225" r="30" fill="url(#gl52)"/></g><g transform="translate(-1024 0)"><path d="M538.5589299108833 208.88756197644398 L538.5589299108833 222.88756197644398" fill="none" stroke="#1a1f33" stroke-width="1.5" stroke-linecap="round" stroke-linejoin="round"/></g><g transform="translate(0 0)"><path d="M538.5589299108833 208.88756197644398 L538.5589299108833 222.88756197644398" fill="none" stroke="#1a1f33" stroke-width="1.5" stroke-linecap="round" stroke-linejoin="round"/></g><g transform="translate(1024 0)"><path d="M538.5589299108833 208.88756197644398 L538.5589299108833 222.88756197644398" fill="none" stroke="#1a1f33" stroke-width="1.5" stroke-linecap="round" stroke-linejoin="round"/></g><g transform="translate(-1024 0)"><rect x="534.5589299108833" y="222.88756197644398" width="8" height="11" fill="#ffd27a" rx="1.5" opacity="0.9"/></g><g transform="translate(0 0)"><rect x="534.5589299108833" y="222.88756197644398" width="8" height="11" fill="#ffd27a" rx="1.5" opacity="0.9"/></g><g transform="translate(1024 0)"><rect x="534.5589299108833" y="222.88756197644398" width="8" height="11" fill="#ffd27a" rx="1.5" opacity="0.9"/></g><radialGradient id="gl53" cx="538.5589299108833" cy="227.88756197644398" r="30" gradientUnits="userSpaceOnUse"><stop offset="0" stop-color="#ffbe64" stop-opacity="0.25"/><stop offset="1" stop-color="#ffbe64" stop-opacity="0"/></radialGradient><g transform="translate(-1024 0)"><circle cx="538.5589299108833" cy="227.88756197644398" r="30" fill="url(#gl53)"/></g><g transform="translate(0 0)"><circle cx="538.5589299108833" cy="227.88756197644398" r="30" fill="url(#gl53)"/></g><g transform="translate(1024 0)"><circle cx="538.5589299108833" cy="227.88756197644398" r="30" fill="url(#gl53)"/></g><g transform="translate(-1024 0)"><path d="M835.6475501060486 216.15598410367966 Q965.5517657259479 276.15598410367966 1095.4559813458472 216.4195116609335" fill="none" stroke="#1a1f33" stroke-width="2" stroke-linecap="round" stroke-linejoin="round"/></g><g transform="translate(0 0)"><path d="M835.6475501060486 216.15598410367966 Q965.5517657259479 276.15598410367966 1095.4559813458472 216.4195116609335" fill="none" stroke="#1a1f33" stroke-width="2" stroke-linecap="round" stroke-linejoin="round"/></g><g transform="translate(1024 0)"><path d="M835.6475501060486 216.15598410367966 Q965.5517657259479 276.15598410367966 1095.4559813458472 216.4195116609335" fill="none" stroke="#1a1f33" stroke-width="2" stroke-linecap="round" stroke-linejoin="round"/></g><g transform="translate(-1024 0)"><path d="M900.5996579159983 235.99640653468668 L900.5996579159983 249.99640653468668" fill="none" stroke="#1a1f33" stroke-width="1.5" stroke-linecap="round" stroke-linejoin="round"/></g><g transform="translate(0 0)"><path d="M900.5996579159983 235.99640653468668 L900.5996579159983 249.99640653468668" fill="none" stroke="#1a1f33" stroke-width="1.5" stroke-linecap="round" stroke-linejoin="round"/></g><g transform="translate(1024 0)"><path d="M900.5996579159983 235.99640653468668 L900.5996579159983 249.99640653468668" fill="none" stroke="#1a1f33" stroke-width="1.5" stroke-linecap="round" stroke-linejoin="round"/></g><g transform="translate(-1024 0)"><rect x="896.5996579159983" y="249.99640653468668" width="8" height="11" fill="#ffd27a" rx="1.5" opacity="0.9"/></g><g transform="translate(0 0)"><rect x="896.5996579159983" y="249.99640653468668" width="8" height="11" fill="#ffd27a" rx="1.5" opacity="0.9"/></g><g transform="translate(1024 0)"><rect x="896.5996579159983" y="249.99640653468668" width="8" height="11" fill="#ffd27a" rx="1.5" opacity="0.9"/></g><radialGradient id="gl54" cx="900.5996579159983" cy="254.99640653468668" r="30" gradientUnits="userSpaceOnUse"><stop offset="0" stop-color="#ffbe64" stop-opacity="0.25"/><stop offset="1" stop-color="#ffbe64" stop-opacity="0"/></radialGradient><g transform="translate(-1024 0)"><circle cx="900.5996579159983" cy="254.99640653468668" r="30" fill="url(#gl54)"/></g><g transform="translate(0 0)"><circle cx="900.5996579159983" cy="254.99640653468668" r="30" fill="url(#gl54)"/></g><g transform="translate(1024 0)"><circle cx="900.5996579159983" cy="254.99640653468668" r="30" fill="url(#gl54)"/></g><g transform="translate(-1024 0)"><path d="M965.5517657259479 241.30854637827724 L965.5517657259479 255.30854637827724" fill="none" stroke="#1a1f33" stroke-width="1.5" stroke-linecap="round" stroke-linejoin="round"/></g><g transform="translate(0 0)"><path d="M965.5517657259479 241.30854637827724 L965.5517657259479 255.30854637827724" fill="none" stroke="#1a1f33" stroke-width="1.5" stroke-linecap="round" stroke-linejoin="round"/></g><g transform="translate(1024 0)"><path d="M965.5517657259479 241.30854637827724 L965.5517657259479 255.30854637827724" fill="none" stroke="#1a1f33" stroke-width="1.5" stroke-linecap="round" stroke-linejoin="round"/></g><g transform="translate(-1024 0)"><rect x="961.5517657259479" y="255.30854637827724" width="8" height="11" fill="#ffd27a" rx="1.5" opacity="0.9"/></g><g transform="translate(0 0)"><rect x="961.5517657259479" y="255.30854637827724" width="8" height="11" fill="#ffd27a" rx="1.5" opacity="0.9"/></g><g transform="translate(1024 0)"><rect x="961.5517657259479" y="255.30854637827724" width="8" height="11" fill="#ffd27a" rx="1.5" opacity="0.9"/></g><radialGradient id="gl55" cx="965.5517657259479" cy="260.30854637827724" r="30" gradientUnits="userSpaceOnUse"><stop offset="0" stop-color="#ffbe64" stop-opacity="0.25"/><stop offset="1" stop-color="#ffbe64" stop-opacity="0"/></radialGradient><g transform="translate(-1024 0)"><circle cx="965.5517657259479" cy="260.30854637827724" r="30" fill="url(#gl55)"/></g><g transform="translate(0 0)"><circle cx="965.5517657259479" cy="260.30854637827724" r="30" fill="url(#gl55)"/></g><g transform="translate(1024 0)"><circle cx="965.5517657259479" cy="260.30854637827724" r="30" fill="url(#gl55)"/></g><g transform="translate(-1024 0)"><path d="M1030.5038735358976 235.82651474047452 L1030.5038735358976 249.82651474047452" fill="none" stroke="#1a1f33" stroke-width="1.5" stroke-linecap="round" stroke-linejoin="round"/></g><g transform="translate(0 0)"><path d="M1030.5038735358976 235.82651474047452 L1030.5038735358976 249.82651474047452" fill="none" stroke="#1a1f33" stroke-width="1.5" stroke-linecap="round" stroke-linejoin="round"/></g><g transform="translate(1024 0)"><path d="M1030.5038735358976 235.82651474047452 L1030.5038735358976 249.82651474047452" fill="none" stroke="#1a1f33" stroke-width="1.5" stroke-linecap="round" stroke-linejoin="round"/></g><g transform="translate(-1024 0)"><rect x="1026.5038735358976" y="249.82651474047452" width="8" height="11" fill="#ffd27a" rx="1.5" opacity="0.9"/></g><g transform="translate(0 0)"><rect x="1026.5038735358976" y="249.82651474047452" width="8" height="11" fill="#ffd27a" rx="1.5" opacity="0.9"/></g><g transform="translate(1024 0)"><rect x="1026.5038735358976" y="249.82651474047452" width="8" height="11" fill="#ffd27a" rx="1.5" opacity="0.9"/></g><radialGradient id="gl56" cx="1030.5038735358976" cy="254.82651474047452" r="30" gradientUnits="userSpaceOnUse"><stop offset="0" stop-color="#ffbe64" stop-opacity="0.25"/><stop offset="1" stop-color="#ffbe64" stop-opacity="0"/></radialGradient><g transform="translate(-1024 0)"><circle cx="1030.5038735358976" cy="254.82651474047452" r="30" fill="url(#gl56)"/></g><g transform="translate(0 0)"><circle cx="1030.5038735358976" cy="254.82651474047452" r="30" fill="url(#gl56)"/></g><g transform="translate(1024 0)"><circle cx="1030.5038735358976" cy="254.82651474047452" r="30" fill="url(#gl56)"/></g><g transform="translate(-1024 0)"><path d="M895.5412278175354 198.1107833236456 Q1011.0709705613554 258.1107833236456 1126.6007133051753 184.78113303892314" fill="none" stroke="#1a1f33" stroke-width="2" stroke-linecap="round" stroke-linejoin="round"/></g><g transform="translate(0 0)"><path d="M895.5412278175354 198.1107833236456 Q1011.0709705613554 258.1107833236456 1126.6007133051753 184.78113303892314" fill="none" stroke="#1a1f33" stroke-width="2" stroke-linecap="round" stroke-linejoin="round"/></g><g transform="translate(1024 0)"><path d="M895.5412278175354 198.1107833236456 Q1011.0709705613554 258.1107833236456 1126.6007133051753 184.78113303892314" fill="none" stroke="#1a1f33" stroke-width="2" stroke-linecap="round" stroke-linejoin="round"/></g><g transform="translate(-1024 0)"><path d="M953.3060991894454 224.55754770198837 L953.3060991894454 238.55754770198837" fill="none" stroke="#1a1f33" stroke-width="1.5" stroke-linecap="round" stroke-linejoin="round"/></g><g transform="translate(0 0)"><path d="M953.3060991894454 224.55754770198837 L953.3060991894454 238.55754770198837" fill="none" stroke="#1a1f33" stroke-width="1.5" stroke-linecap="round" stroke-linejoin="round"/></g><g transform="translate(1024 0)"><path d="M953.3060991894454 224.55754770198837 L953.3060991894454 238.55754770198837" fill="none" stroke="#1a1f33" stroke-width="1.5" stroke-linecap="round" stroke-linejoin="round"/></g><g transform="translate(-1024 0)"><rect x="949.3060991894454" y="238.55754770198837" width="8" height="11" fill="#2a2a3a" rx="1.5" opacity="1"/></g><g transform="translate(0 0)"><rect x="949.3060991894454" y="238.55754770198837" width="8" height="11" fill="#2a2a3a" rx="1.5" opacity="1"/></g><g transform="translate(1024 0)"><rect x="949.3060991894454" y="238.55754770198837" width="8" height="11" fill="#2a2a3a" rx="1.5" opacity="1"/></g><g transform="translate(-1024 0)"><path d="M1011.0709705613554 224.68714392744005 L1011.0709705613554 238.68714392744005" fill="none" stroke="#1a1f33" stroke-width="1.5" stroke-linecap="round" stroke-linejoin="round"/></g><g transform="translate(0 0)"><path d="M1011.0709705613554 224.68714392744005 L1011.0709705613554 238.68714392744005" fill="none" stroke="#1a1f33" stroke-width="1.5" stroke-linecap="round" stroke-linejoin="round"/></g><g transform="translate(1024 0)"><path d="M1011.0709705613554 224.68714392744005 L1011.0709705613554 238.68714392744005" fill="none" stroke="#1a1f33" stroke-width="1.5" stroke-linecap="round" stroke-linejoin="round"/></g><g transform="translate(-1024 0)"><rect x="1007.0709705613554" y="238.68714392744005" width="8" height="11" fill="#2a2a3a" rx="1.5" opacity="1"/></g><g transform="translate(0 0)"><rect x="1007.0709705613554" y="238.68714392744005" width="8" height="11" fill="#2a2a3a" rx="1.5" opacity="1"/></g><g transform="translate(1024 0)"><rect x="1007.0709705613554" y="238.68714392744005" width="8" height="11" fill="#2a2a3a" rx="1.5" opacity="1"/></g><g transform="translate(-1024 0)"><path d="M1068.8358419332653 220.1728434022516 L1068.8358419332653 234.1728434022516" fill="none" stroke="#1a1f33" stroke-width="1.5" stroke-linecap="round" stroke-linejoin="round"/></g><g transform="translate(0 0)"><path d="M1068.8358419332653 220.1728434022516 L1068.8358419332653 234.1728434022516" fill="none" stroke="#1a1f33" stroke-width="1.5" stroke-linecap="round" stroke-linejoin="round"/></g><g transform="translate(1024 0)"><path d="M1068.8358419332653 220.1728434022516 L1068.8358419332653 234.1728434022516" fill="none" stroke="#1a1f33" stroke-width="1.5" stroke-linecap="round" stroke-linejoin="round"/></g><g transform="translate(-1024 0)"><rect x="1064.8358419332653" y="234.1728434022516" width="8" height="11" fill="#2a2a3a" rx="1.5" opacity="1"/></g><g transform="translate(0 0)"><rect x="1064.8358419332653" y="234.1728434022516" width="8" height="11" fill="#2a2a3a" rx="1.5" opacity="1"/></g><g transform="translate(1024 0)"><rect x="1064.8358419332653" y="234.1728434022516" width="8" height="11" fill="#2a2a3a" rx="1.5" opacity="1"/></g><g transform="translate(-1024 0)"><path d="M267.0113933086395 171.7319881170988 Q454.2932271072641 231.7319881170988 641.5750609058887 154.6859139483422" fill="none" stroke="#1a1f33" stroke-width="2" stroke-linecap="round" stroke-linejoin="round"/></g><g transform="translate(0 0)"><path d="M267.0113933086395 171.7319881170988 Q454.2932271072641 231.7319881170988 641.5750609058887 154.6859139483422" fill="none" stroke="#1a1f33" stroke-width="2" stroke-linecap="round" stroke-linejoin="round"/></g><g transform="translate(1024 0)"><path d="M267.0113933086395 171.7319881170988 Q454.2932271072641 231.7319881170988 641.5750609058887 154.6859139483422" fill="none" stroke="#1a1f33" stroke-width="2" stroke-linecap="round" stroke-linejoin="round"/></g><g transform="translate(-1024 0)"><path d="M360.6523102079518 189.2859421321191 L360.6523102079518 203.2859421321191" fill="none" stroke="#1a1f33" stroke-width="1.5" stroke-linecap="round" stroke-linejoin="round"/></g><g transform="translate(0 0)"><path d="M360.6523102079518 189.2859421321191 L360.6523102079518 203.2859421321191" fill="none" stroke="#1a1f33" stroke-width="1.5" stroke-linecap="round" stroke-linejoin="round"/></g><g transform="translate(1024 0)"><path d="M360.6523102079518 189.2859421321191 L360.6523102079518 203.2859421321191" fill="none" stroke="#1a1f33" stroke-width="1.5" stroke-linecap="round" stroke-linejoin="round"/></g><g transform="translate(-1024 0)"><rect x="356.6523102079518" y="203.2859421321191" width="8" height="11" fill="#ffd27a" rx="1.5" opacity="0.9"/></g><g transform="translate(0 0)"><rect x="356.6523102079518" y="203.2859421321191" width="8" height="11" fill="#ffd27a" rx="1.5" opacity="0.9"/></g><g transform="translate(1024 0)"><rect x="356.6523102079518" y="203.2859421321191" width="8" height="11" fill="#ffd27a" rx="1.5" opacity="0.9"/></g><radialGradient id="gl57" cx="360.6523102079518" cy="208.2859421321191" r="30" gradientUnits="userSpaceOnUse"><stop offset="0" stop-color="#ffbe64" stop-opacity="0.25"/><stop offset="1" stop-color="#ffbe64" stop-opacity="0"/></radialGradient><g transform="translate(-1024 0)"><circle cx="360.6523102079518" cy="208.2859421321191" r="30" fill="url(#gl57)"/></g><g transform="translate(0 0)"><circle cx="360.6523102079518" cy="208.2859421321191" r="30" fill="url(#gl57)"/></g><g transform="translate(1024 0)"><circle cx="360.6523102079518" cy="208.2859421321191" r="30" fill="url(#gl57)"/></g><g transform="translate(-1024 0)"><path d="M454.2932271072641 199.51370441820472 L454.2932271072641 213.51370441820472" fill="none" stroke="#1a1f33" stroke-width="1.5" stroke-linecap="round" stroke-linejoin="round"/></g><g transform="translate(0 0)"><path d="M454.2932271072641 199.51370441820472 L454.2932271072641 213.51370441820472" fill="none" stroke="#1a1f33" stroke-width="1.5" stroke-linecap="round" stroke-linejoin="round"/></g><g transform="translate(1024 0)"><path d="M454.2932271072641 199.51370441820472 L454.2932271072641 213.51370441820472" fill="none" stroke="#1a1f33" stroke-width="1.5" stroke-linecap="round" stroke-linejoin="round"/></g><g transform="translate(-1024 0)"><rect x="450.2932271072641" y="213.51370441820472" width="8" height="11" fill="#ffd27a" rx="1.5" opacity="0.9"/></g><g transform="translate(0 0)"><rect x="450.2932271072641" y="213.51370441820472" width="8" height="11" fill="#ffd27a" rx="1.5" opacity="0.9"/></g><g transform="translate(1024 0)"><rect x="450.2932271072641" y="213.51370441820472" width="8" height="11" fill="#ffd27a" rx="1.5" opacity="0.9"/></g><radialGradient id="gl58" cx="454.2932271072641" cy="218.51370441820472" r="30" gradientUnits="userSpaceOnUse"><stop offset="0" stop-color="#ffbe64" stop-opacity="0.25"/><stop offset="1" stop-color="#ffbe64" stop-opacity="0"/></radialGradient><g transform="translate(-1024 0)"><circle cx="454.2932271072641" cy="218.51370441820472" r="30" fill="url(#gl58)"/></g><g transform="translate(0 0)"><circle cx="454.2932271072641" cy="218.51370441820472" r="30" fill="url(#gl58)"/></g><g transform="translate(1024 0)"><circle cx="454.2932271072641" cy="218.51370441820472" r="30" fill="url(#gl58)"/></g><g transform="translate(-1024 0)"><path d="M547.9341440065764 195.04678689176217 L547.9341440065764 209.04678689176217" fill="none" stroke="#1a1f33" stroke-width="1.5" stroke-linecap="round" stroke-linejoin="round"/></g><g transform="translate(0 0)"><path d="M547.9341440065764 195.04678689176217 L547.9341440065764 209.04678689176217" fill="none" stroke="#1a1f33" stroke-width="1.5" stroke-linecap="round" stroke-linejoin="round"/></g><g transform="translate(1024 0)"><path d="M547.9341440065764 195.04678689176217 L547.9341440065764 209.04678689176217" fill="none" stroke="#1a1f33" stroke-width="1.5" stroke-linecap="round" stroke-linejoin="round"/></g><g transform="translate(-1024 0)"><rect x="543.9341440065764" y="209.04678689176217" width="8" height="11" fill="#2a2a3a" rx="1.5" opacity="1"/></g><g transform="translate(0 0)"><rect x="543.9341440065764" y="209.04678689176217" width="8" height="11" fill="#2a2a3a" rx="1.5" opacity="1"/></g><g transform="translate(1024 0)"><rect x="543.9341440065764" y="209.04678689176217" width="8" height="11" fill="#2a2a3a" rx="1.5" opacity="1"/></g><g transform="translate(-1024 0)"><rect x="41.944754337891936" y="363.1039565987885" width="161.54551463201642" height="286.8960434012115" fill="#20263e"/></g><g transform="translate(0 0)"><rect x="41.944754337891936" y="363.1039565987885" width="161.54551463201642" height="286.8960434012115" fill="#20263e"/></g><g transform="translate(1024 0)"><rect x="41.944754337891936" y="363.1039565987885" width="161.54551463201642" height="286.8960434012115" fill="#20263e"/></g><g transform="translate(-1024 0)"><path d="M33.944754337891936 363.1039565987885 L122.71751165390015 318.86055080685765 L211.49026896990836 363.1039565987885 Z" fill="#2a3050"/></g><g transform="translate(0 0)"><path d="M33.944754337891936 363.1039565987885 L122.71751165390015 318.86055080685765 L211.49026896990836 363.1039565987885 Z" fill="#2a3050"/></g><g transform="translate(1024 0)"><path d="M33.944754337891936 363.1039565987885 L122.71751165390015 318.86055080685765 L211.49026896990836 363.1039565987885 Z" fill="#2a3050"/></g><g transform="translate(-1024 0)"><rect x="130.79469635151327" y="347.9627341590822" width="169.01541085913777" height="302.0372658409178" fill="#20263e"/></g><g transform="translate(0 0)"><rect x="130.79469635151327" y="347.9627341590822" width="169.01541085913777" height="302.0372658409178" fill="#20263e"/></g><g transform="translate(1024 0)"><rect x="130.79469635151327" y="347.9627341590822" width="169.01541085913777" height="302.0372658409178" fill="#20263e"/></g><g transform="translate(-1024 0)"><path d="M122.79469635151327 347.9627341590822 L215.30240178108215 304.85218793386593 L307.81010721065104 347.9627341590822 Z" fill="#2a3050"/></g><g transform="translate(0 0)"><path d="M122.79469635151327 347.9627341590822 L215.30240178108215 304.85218793386593 L307.81010721065104 347.9627341590822 Z" fill="#2a3050"/></g><g transform="translate(1024 0)"><path d="M122.79469635151327 347.9627341590822 L215.30240178108215 304.85218793386593 L307.81010721065104 347.9627341590822 Z" fill="#2a3050"/></g><g transform="translate(-1024 0)"><rect x="875.5095389909111" y="242.5949220173061" width="163.07148293126374" height="407.4050779826939" fill="#20263e"/></g><g transform="translate(0 0)"><rect x="875.5095389909111" y="242.5949220173061" width="163.07148293126374" height="407.4050779826939" fill="#20263e"/></g><g transform="translate(1024 0)"><rect x="875.5095389909111" y="242.5949220173061" width="163.07148293126374" height="407.4050779826939" fill="#20263e"/></g><g transform="translate(-1024 0)"><path d="M867.5095389909111 242.5949220173061 L957.045280456543 208.17218490177765 L1046.5810219221748 242.5949220173061 Z" fill="#2a3050"/></g><g transform="translate(0 0)"><path d="M867.5095389909111 242.5949220173061 L957.045280456543 208.17218490177765 L1046.5810219221748 242.5949220173061 Z" fill="#2a3050"/></g><g transform="translate(1024 0)"><path d="M867.5095389909111 242.5949220173061 L957.045280456543 208.17218490177765 L1046.5810219221748 242.5949220173061 Z" fill="#2a3050"/></g><g transform="translate(-1024 0)"><rect x="65.4432975933887" y="435.39297274313867" width="217.17863995116204" height="214.60702725686133" fill="#20263e"/></g><g transform="translate(0 0)"><rect x="65.4432975933887" y="435.39297274313867" width="217.17863995116204" height="214.60702725686133" fill="#20263e"/></g><g transform="translate(1024 0)"><rect x="65.4432975933887" y="435.39297274313867" width="217.17863995116204" height="214.60702725686133" fill="#20263e"/></g><g transform="translate(-1024 0)"><path d="M57.443297593388706 435.39297274313867 L174.03261756896973 384.55326879164204 L290.62193754455075 435.39297274313867 Z" fill="#2a3050"/></g><g transform="translate(0 0)"><path d="M57.443297593388706 435.39297274313867 L174.03261756896973 384.55326879164204 L290.62193754455075 435.39297274313867 Z" fill="#2a3050"/></g><g transform="translate(1024 0)"><path d="M57.443297593388706 435.39297274313867 L174.03261756896973 384.55326879164204 L290.62193754455075 435.39297274313867 Z" fill="#2a3050"/></g><g transform="translate(-1024 0)"><rect x="594.6732677416876" y="412.5971137173474" width="200.62711640261114" height="237.40288628265262" fill="#20263e"/></g><g transform="translate(0 0)"><rect x="594.6732677416876" y="412.5971137173474" width="200.62711640261114" height="237.40288628265262" fill="#20263e"/></g><g transform="translate(1024 0)"><rect x="594.6732677416876" y="412.5971137173474" width="200.62711640261114" height="237.40288628265262" fill="#20263e"/></g><g transform="translate(-1024 0)"><path d="M586.6732677416876 412.5971137173474 L694.9868259429932 374.01635790476575 L803.3003841442987 412.5971137173474 Z" fill="#2a3050"/></g><g transform="translate(0 0)"><path d="M586.6732677416876 412.5971137173474 L694.9868259429932 374.01635790476575 L803.3003841442987 412.5971137173474 Z" fill="#2a3050"/></g><g transform="translate(1024 0)"><path d="M586.6732677416876 412.5971137173474 L694.9868259429932 374.01635790476575 L803.3003841442987 412.5971137173474 Z" fill="#2a3050"/></g><g transform="translate(-1024 0)"><rect x="689.2750203306787" y="357.0964951161295" width="203.7786245951429" height="292.9035048838705" fill="#20263e"/></g><g transform="translate(0 0)"><rect x="689.2750203306787" y="357.0964951161295" width="203.7786245951429" height="292.9035048838705" fill="#20263e"/></g><g transform="translate(1024 0)"><rect x="689.2750203306787" y="357.0964951161295" width="203.7786245951429" height="292.9035048838705" fill="#20263e"/></g><g transform="translate(-1024 0)"><path d="M681.2750203306787 357.0964951161295 L791.1643326282501 306.55249283416197 L901.0536449258216 357.0964951161295 Z" fill="#2a3050"/></g><g transform="translate(0 0)"><path d="M681.2750203306787 357.0964951161295 L791.1643326282501 306.55249283416197 L901.0536449258216 357.0964951161295 Z" fill="#2a3050"/></g><g transform="translate(1024 0)"><path d="M681.2750203306787 357.0964951161295 L791.1643326282501 306.55249283416197 L901.0536449258216 357.0964951161295 Z" fill="#2a3050"/></g><g transform="translate(-1024 0)"><rect x="494.3530192053877" y="386.8004162888974" width="116.8714800523594" height="263.1995837111026" fill="#20263e"/></g><g transform="translate(0 0)"><rect x="494.3530192053877" y="386.8004162888974" width="116.8714800523594" height="263.1995837111026" fill="#20263e"/></g><g transform="translate(1024 0)"><rect x="494.3530192053877" y="386.8004162888974" width="116.8714800523594" height="263.1995837111026" fill="#20263e"/></g><g transform="translate(-1024 0)"><path d="M486.3530192053877 386.8004162888974 L552.7887592315674 353.1733334623277 L619.2244992577471 386.8004162888974 Z" fill="#2a3050"/></g><g transform="translate(0 0)"><path d="M486.3530192053877 386.8004162888974 L552.7887592315674 353.1733334623277 L619.2244992577471 386.8004162888974 Z" fill="#2a3050"/></g><g transform="translate(1024 0)"><path d="M486.3530192053877 386.8004162888974 L552.7887592315674 353.1733334623277 L619.2244992577471 386.8004162888974 Z" fill="#2a3050"/></g><g transform="translate(-1024 0)"><rect x="233.52915065921843" y="295.6543978396803" width="111.26432193443179" height="354.3456021603197" fill="#20263e"/></g><g transform="translate(0 0)"><rect x="233.52915065921843" y="295.6543978396803" width="111.26432193443179" height="354.3456021603197" fill="#20263e"/></g><g transform="translate(1024 0)"><rect x="233.52915065921843" y="295.6543978396803" width="111.26432193443179" height="354.3456021603197" fill="#20263e"/></g><g transform="translate(-1024 0)"><path d="M225.52915065921843 295.6543978396803 L289.1613116264343 253.99338946444914 L352.7934725936502 295.6543978396803 Z" fill="#2a3050"/></g><g transform="translate(0 0)"><path d="M225.52915065921843 295.6543978396803 L289.1613116264343 253.99338946444914 L352.7934725936502 295.6543978396803 Z" fill="#2a3050"/></g><g transform="translate(1024 0)"><path d="M225.52915065921843 295.6543978396803 L289.1613116264343 253.99338946444914 L352.7934725936502 295.6543978396803 Z" fill="#2a3050"/></g></svg>
