<svg xmlns="http://www.w3.org/2000/svg" viewBox="0 0 28 20" width="28" height="20"><defs><linearGradient id="eb" x1="4" y1="3" x2="24" y2="16" gradientUnits="userSpaceOnUse"><stop offset="0" stop-color="#a05a30"/><stop offset="0.5" stop-color="#6a3a20"/><stop offset="1" stop-color="#3a2010"/></linearGradient></defs><ellipse cx="13" cy="14" rx="9.5" ry="2.4" fill="#5a4030"/><path d="M3 15 C3 7 9 5 14 5 C19 5 25 7 25 15 Z" fill="url(#eb)" stroke="#1c110a" stroke-width="1"/><path d="M9 4.5 L9 15 M14.5 3.5 L14.5 15 M20 4.5 L20 15" fill="none" stroke="#2a1a10" stroke-width="0.8" stroke-linecap="round" stroke-linejoin="round" opacity="0.7"/><path d="M6 9 L8 11.5 L7 13.5 M11 6 L12.5 9 L11.5 12 M17 6 L16 9.5 L18 12 M22 9 L21 12" fill="none" stroke="#ff8a3c" stroke-width="1.1" stroke-linecap="round" stroke-linejoin="round"/><path d="M6 9 L8 11.5 M11 6 L12.5 9 M17 6 L16 9.5" fill="none" stroke="#ffe0a0" stroke-width="0.6" stroke-linecap="round" stroke-linejoin="round" opacity="0.8"/></svg>
