<svg xmlns="http://www.w3.org/2000/svg" viewBox="0 0 26 20" width="26" height="20"><defs><linearGradient id="hw" x1="0" y1="4" x2="0" y2="18" gradientUnits="userSpaceOnUse"><stop offset="0" stop-color="#6b5e8e"/><stop offset="1" stop-color="#3a3050"/></linearGradient></defs><g><path d="M13 10 C8 5 1 5 1 10.8 C1 14.9 8 15 13 12 Z" fill="url(#hw)" stroke="#2a2238" stroke-width="0.8"/><circle cx="4.800000000000001" cy="10" r="2.1" fill="#2a2238"/><circle cx="4.800000000000001" cy="10" r="1.2" fill="#7fd7ff" opacity="0.9"/><circle cx="4.800000000000001" cy="10" r="0.5" fill="#ffffff"/></g><g><path d="M13 10 C18 5 25 5 25 10.8 C25 14.9 18 15 13 12 Z" fill="url(#hw)" stroke="#2a2238" stroke-width="0.8"/><circle cx="21.2" cy="10" r="2.1" fill="#2a2238"/><circle cx="21.2" cy="10" r="1.2" fill="#7fd7ff" opacity="0.9"/><circle cx="21.2" cy="10" r="0.5" fill="#ffffff"/></g><ellipse cx="13" cy="11.5" rx="2.6" ry="5" fill="#2a2238" stroke="#120e1c" stroke-width="0.8"/><ellipse cx="13" cy="8.5" rx="3.2" ry="2.2" fill="#4a3f66"/><circle cx="12" cy="8" r="1.26" fill="#7fd7ff" opacity="0.25"/><circle cx="12" cy="8" r="0.7" fill="#7fd7ff"/><circle cx="12" cy="8" r="0.315" fill="#ffffff" opacity="0.8"/><circle cx="14.2" cy="8" r="1.26" fill="#7fd7ff" opacity="0.25"/><circle cx="14.2" cy="8" r="0.7" fill="#7fd7ff"/><circle cx="14.2" cy="8" r="0.315" fill="#ffffff" opacity="0.8"/><path d="M12 6 C10.5 3.5 9.5 3 8.5 3.5" fill="none" stroke="#4a3f66" stroke-width="0.7" stroke-linecap="round" stroke-linejoin="round"/><path d="M14 6 C15.5 3.5 16.5 3 17.5 3.5" fill="none" stroke="#4a3f66" stroke-width="0.7" stroke-linecap="round" stroke-linejoin="round"/></svg>
