<svg xmlns="http://www.w3.org/2000/svg" viewBox="0 0 36 40" width="36" height="40"><defs><linearGradient id="mb" x1="10" y1="10" x2="26" y2="36" gradientUnits="userSpaceOnUse"><stop offset="0" stop-color="#fffaf0"/><stop offset="0.55" stop-color="#f4ecff"/><stop offset="1" stop-color="#d8ccff"/></linearGradient><linearGradient id="me" x1="0" y1="0" x2="0" y2="-20" gradientUnits="userSpaceOnUse"><stop offset="0" stop-color="#fff3dc"/><stop offset="0.7" stop-color="#ffe2b0"/><stop offset="1" stop-color="#ffb347"/></linearGradient><radialGradient id="mc" cx="17" cy="21" r="9" gradientUnits="userSpaceOnUse"><stop offset="0" stop-color="#ffffff" stop-opacity="0.9"/><stop offset="1" stop-color="#ffffff" stop-opacity="0"/></radialGradient></defs><g transform="translate(18 38) rotate(5 0 0) scale(0.92 1.14) translate(-18 -38)"><path d="M11 28 C6 30 4 34 5 38" fill="none" stroke="#e8dcff" stroke-width="3.2" stroke-linecap="round" stroke-linejoin="round"/><path d="M11 28 C6 30 4 34 5 38" fill="none" stroke="#fffaf0" stroke-width="1.4" stroke-linecap="round" stroke-linejoin="round"/><g transform="translate(15.5 12.5) rotate(-78 0 0)"><path d="M0 0 C-3.2 -6 -3.4 -13 0 -20 C3.4 -13 3.2 -6 0 0 Z" fill="url(#me)" stroke="#e8c690" stroke-width="0.7"/><path d="M0 -2 C0.4 -8 0.4 -13 0 -18" fill="none" stroke="#f0c890" stroke-width="0.6" stroke-linecap="round" stroke-linejoin="round" opacity="0.7"/><circle cx="0" cy="-19" r="1.6" fill="#ffd27a" opacity="0.55"/></g><path d="M18 12 C25.5 12 27 19.5 26.2 27 C25.5 33 22.5 36.2 18 36.2 C13.5 36.2 10.5 33 9.8 27 C9 19.5 10.5 12 18 12 Z" fill="url(#mb)" stroke="#cbbde8" stroke-width="0.9"/><circle cx="17" cy="21" r="9" fill="url(#mc)"/><path d="M12.2 16 C13 13.8 15 12.6 17.5 12.4" fill="none" stroke="#ffffff" stroke-width="1.2" stroke-linecap="round" stroke-linejoin="round" opacity="0.8"/><path d="M20 35.6 C24 34.5 26 30 25.6 25" fill="#8f7fbf" opacity="0.22" stroke="none"/><circle cx="23.6" cy="24.6" r="1.6" fill="#ffc6b0" opacity="0.45"/><g transform="translate(20 12.2) rotate(-56 0 0)"><path d="M0 0 C-3.2 -6 -3.4 -13 0 -20 C3.4 -13 3.2 -6 0 0 Z" fill="url(#me)" stroke="#e8c690" stroke-width="0.7"/><path d="M0 -2 C0.4 -8 0.4 -13 0 -18" fill="none" stroke="#f0c890" stroke-width="0.6" stroke-linecap="round" stroke-linejoin="round" opacity="0.7"/><circle cx="0" cy="-19" r="1.6" fill="#ffd27a" opacity="0.55"/></g><ellipse cx="15.2" cy="21" rx="2.1" ry="2.9" fill="#1a1526"/><circle cx="14.465" cy="19.695" r="0.63" fill="#ffffff"/><ellipse cx="20.6" cy="20.4" rx="1.9" ry="2.6" fill="#1a1526"/><circle cx="19.935000000000002" cy="19.229999999999997" r="0.57" fill="#ffffff"/></g><g transform="translate(15 34.4) rotate(-40 0 0)"><path d="M0 0 L0 3.2" fill="none" stroke="#d8d0f4" stroke-width="2.4" stroke-linecap="round" stroke-linejoin="round"/><ellipse cx="0" cy="3.4" rx="1.9" ry="1.2" fill="#eee8ff"/></g><g transform="translate(21 34.4) rotate(-40 0 0)"><path d="M0 0 L0 3.2" fill="none" stroke="#d8d0f4" stroke-width="2.4" stroke-linecap="round" stroke-linejoin="round"/><ellipse cx="0" cy="3.4" rx="1.9" ry="1.2" fill="#eee8ff"/></g></svg>
