<svg xmlns="http://www.w3.org/2000/svg" viewBox="0 0 34 24" width="34" height="24"><defs><linearGradient id="rb" x1="6" y1="4" x2="26" y2="22" gradientUnits="userSpaceOnUse"><stop offset="0" stop-color="#6a4a30"/><stop offset="0.5" stop-color="#4a2f1e"/><stop offset="1" stop-color="#2a1a12"/></linearGradient></defs><path d="M2 14 L-4 13 M2 17 L-5 17.5 M2 20 L-3 21" fill="none" stroke="#ffffff" stroke-width="0.9" stroke-linecap="round" stroke-linejoin="round" opacity="0.4"/><path d="M8 18 L7 23.5" fill="none" stroke="#2a1a12" stroke-width="2.4" stroke-linecap="round" stroke-linejoin="round"/><path d="M13 18 L12 23.5" fill="none" stroke="#2a1a12" stroke-width="2.4" stroke-linecap="round" stroke-linejoin="round"/><path d="M18 18 L17 23.5" fill="none" stroke="#2a1a12" stroke-width="2.4" stroke-linecap="round" stroke-linejoin="round"/><path d="M23 18 L22 23.5" fill="none" stroke="#2a1a12" stroke-width="2.4" stroke-linecap="round" stroke-linejoin="round"/><path d="M4 18 C3 8 10 5 18 5 L24 5 C29 5 31 9 31 14 L31 18 Z" fill="url(#rb)" stroke="#1c110a" stroke-width="1"/><path d="M8 17 C6 15 5 12 7 9" fill="none" stroke="#8a5a34" stroke-width="1" stroke-linecap="round" stroke-linejoin="round"/><path d="M14 18 C13 14 15 11 14 7" fill="none" stroke="#8a5a34" stroke-width="1" stroke-linecap="round" stroke-linejoin="round"/><path d="M20 18 C21 14 19 10 21 6" fill="none" stroke="#8a5a34" stroke-width="1" stroke-linecap="round" stroke-linejoin="round"/><path d="M22 8 L32 12 L33 18 L23 18 Z" fill="#a06a3a" stroke="#3a2416" stroke-width="0.9"/><path d="M25 10 L31 13" fill="none" stroke="#c48a5a" stroke-width="0.6" stroke-linecap="round" stroke-linejoin="round" opacity="0.6"/><path d="M25 14 L31 15.5" fill="none" stroke="#c48a5a" stroke-width="0.6" stroke-linecap="round" stroke-linejoin="round" opacity="0.6"/><path d="M30 9 C34 5 36 10 33 12" fill="none" stroke="#e0c8a0" stroke-width="2.2" stroke-linecap="round" stroke-linejoin="round"/><path d="M30 12 C34 11 35 14 32 15" fill="none" stroke="#e0c8a0" stroke-width="1.8" stroke-linecap="round" stroke-linejoin="round"/><circle cx="29" cy="14.5" r="2.16" fill="#ff3a2a" opacity="0.25"/><circle cx="29" cy="14.5" r="1.2" fill="#ff3a2a"/><circle cx="29" cy="14.5" r="0.54" fill="#ffffff" opacity="0.8"/></svg>
